<?xml version="1.0" encoding="UTF-8"?>
<svg id="Layer_1" data-name="Layer 1" xmlns="http://www.w3.org/2000/svg" width="139.96529mm" height="58.47677mm" xmlns:xlink="http://www.w3.org/1999/xlink" viewBox="0 0 396.75202 165.76092">
  <defs>
    <style>
      .cls-1 {
        fill: #d1002c;
        stroke-width: 0px;
      }
    </style>
    <symbol id="uia_symbol_positiv" data-name="uia symbol positiv" viewBox="0 0 135 166">
      <g>
        <path class="cls-1" d="m62.5,58.6h12.6c-2.5-13.2.7-18.5,11.7-18.5h48.09999v-13.3h-48.39999c-19,0-28.4,11.1-24,31.8Z"/>
        <rect class="cls-1" x="120.8" y="77.9" width="14.1" height="88.1"/>
        <rect class="cls-1" x="92" y="77.9" width="14.1" height="88.1"/>
        <rect class="cls-1" x="91.3" y="51.8" width="43.7" height="13.4"/>
        <path class="cls-1" d="m59,153.1c-14-.5-23.4-8.6-23.1-20.4.2-10.6,7.5-19.5,18.1-19.5,6.4,0,12.4,1.4,16.7,6.5v-14c-4.6-3.7-11-5.3-16.5-5.3-16.5,0-31,12.8-31,31.1,0,8.2,3.9,15.7,8.1,20.4-11.9-5.9-19-16.4-19-32.5,0-18.6,15.1-32.8,33.7-32.8,3.2,0,6.1.3,9.3,1.1v-14c-2.5-.6-6.1-.8-8.8-.8C20.9,72.9,0,93.7,0,119.4c.1,29,21.5,46.6,45.7,46.6h31.7v-12.8c-.1,0-10.9,0-18.4-.1h0Z"/>
        <path class="cls-1" d="m1.1,0v79.8c3.6-3.9,7.1-7,12-9.8V12.1h121.8V0H1.1Z"/>
      </g>
    </symbol>
  </defs>
  <g>
    <path class="cls-1" d="m204.85203,38.93936v55.40001c0,19.2,10.10001,24.7,20.70001,24.7,12.29999,0,20.39999-6.3,20.39999-24.7v-55.39999h17.39999v54.5c0,31.10001-17.89999,39.39999-38.10001,39.39999-20.39999,0-37.89999-8.70001-37.89999-38.8v-55.09999l17.5-.00002h0Z"/>
    <path class="cls-1" d="m281.15202,38.93936h16.60001v16.3h-16.60001v-16.3Zm0,29.10001h16.60001v63.59999h-16.60001v-63.59999Z"/>
    <path class="cls-1" d="m334.95203,108.03936l-8.20001,23.59999h-17.10001l32-92.60001h21.70001l33.39999,92.60001h-18.29999l-8.5-23.60001h-35v.00002Zm31-14.40001c-7.29999-21.2-11.79999-33.8-13.89999-41.7h-.10001c-2.29999,8.7-7.20001,23.60001-13.10001,41.7h27.10001Z"/>
  </g>
  <use width="135" height="166" transform="" xlink:href="#uia_symbol_positiv"/>
</svg>